<?xml version="1.0"?><svg id="uuid-71a1d059-9ced-4c63-ab2c-b5a025f26b9f" xmlns="http://www.w3.org/2000/svg" viewBox="0 0 900 127.278"><path d="M0,101.4813h121.7104l-6.6478,9.0474H0v-9.0474h0ZM0,84.6949v9.035h127.4155l6.6599-9.035H0ZM0,118.2802v8.9854h102.7347l6.6183-8.9854H0ZM900,110.5288v-9.0412h-114.5914l-6.6443,9.0412h121.2357ZM900,127.2656v-8.9854h-126.9472l-6.6164,8.9978,133.5636-.0124h0ZM797.7644,84.6949l-6.6507,9.0474,108.8862-.0063v-9.0411h-102.2356ZM117.8842,127.2656h140.8362c46.509,0,72.4096-31.6319,80.3951-42.5707h-96.0157c-12.1777,0-8.5017-5.0044-6.4694-7.7514,4.0043-5.4073,10.6953-14.5665,14.6269-19.8931,3.8713-5.2463,3.9751-8.254-3.9468-8.254h-71.6702l-57.7561,78.4691h0ZM448.6481,84.6886l-82.6039.0063c-.0279,0-31.3315,42.5707-31.3315,42.5707h82.6182l31.3172-42.577h0ZM568.1197,84.6949h-82.5871c-.0279,0-31.3344,42.5707-31.3344,42.5707h82.5871l31.3344-42.5707h0ZM594.9866,84.6949c.0029,0-6.0338,8.2537-8.9671,12.2162-10.3743,14.0207-1.2059,30.3545,32.6523,30.3545h132.6368l31.3284-42.5707h-187.6503ZM158.2739,0l-28.7547,39.0671h156.7141c7.9207,0,7.8168,3.0077,3.9456,8.2537-3.9316,5.3206-10.5124,14.5852-14.5167,19.9925-2.0326,2.741-5.7083,7.745,6.4694,7.745h64.0857s10.3295-14.0578,18.9881-25.809c11.7805-15.9863,1.0217-49.2492-41.0905-49.2492h-165.8409ZM575.214,75.0583L630.4542,0h-82.5779l-31.6912,43.0358h-36.8627L510.9885,0h-82.5903l-55.257,75.0583h202.0727ZM744.8347,0h-87.4709c-.0276,0-55.2926,75.0583-55.2926,75.0583h87.5172L744.8347,0h0Z" style="fill:#fff;"></path></svg>