<?xml version="1.0"?>
<svg id="dhl_dynamic-elements" xmlns="http://www.w3.org/2000/svg" version="1.1" viewBox="0 0 1000 1000">
  
  <defs>
    
  </defs>
  <path class="st0" d="M556.2,31.4c107.4,163.9,246.5,303.3,410,410.9h2.4c7.4,4.9,14.7,12.2,19.5,19.5,22,31.8,12.2,73.4-19.5,95.4-163.5,107.6-302.6,247-410,410.9-14.7,19.5-34.1,31.8-58.6,31.8s-46.4-12.3-58.6-31.8c-107.4-163.9-246.6-303.3-410-410.9-7.4-4.9-14.7-12.3-19.5-19.6-22-31.8-12.2-73.4,19.5-95.4C194.9,334.7,334,195.3,441.4,31.4c4.9-7.3,12.2-14.7,19.5-19.6,31.8-22,73.3-12.2,95.2,19.6"></path>
</svg>