<?xml version="1.0"?>
<svg id="dhl_dynamic-elements" xmlns="http://www.w3.org/2000/svg" version="1.1" viewBox="0 0 1017 1000">
  
  <defs>
    
  </defs>
  <path class="st0" d="M709.2,275.5c16.8,65.1,26.3,131.8,28.3,199h-203.5v-179.1c58.9-1.2,117.5-7.9,175.2-19.9M788.2,474.5h228.8c-4.9-101.5-40.2-199.2-101.3-280.4-48.2,30.8-100.8,54-156.1,68.8,17.6,69.2,27.2,140.3,28.6,211.7M307.8,275.5c-16.8,65.1-26.3,131.8-28.3,199h203.5v-179.1c-58.9-1.2-117.5-7.9-175.2-19.9M322.2,226.6c52.9,10.7,106.8,16.7,160.8,17.8V18.7c-68.7,16.7-124.9,99.9-160.8,207.9M694.8,226.6c-35.9-108-92.2-191.1-160.8-207.9v225.7c54-1.1,107.8-7.1,160.8-17.8M745.2,214c48.5-13,94.9-32.9,137.6-59.3C809.9,75.3,713.7,21.1,608,0c57,41.4,105,117,137.2,214M483,704.6v-179.1h-203.5c2,67.2,11.5,133.9,28.3,199,57.7-12,116.3-18.7,175.2-19.9M322.2,773.3c35.9,108,92.1,191.2,160.8,207.9v-225.7c-54,1.1-107.9,7.1-160.8,17.8M228.8,525.5H0c4.9,101.5,40.2,199.3,101.4,280.4,48.2-30.7,100.8-54,156-68.8-17.6-69.2-27.2-140.2-28.6-211.7M608,1000c105.7-21.2,201.9-75.3,274.8-154.8-42.7-26.4-89.1-46.3-137.6-59.3-32.2,97-80.2,172.7-137.2,214.1M694.8,773.3c-53-10.7-106.8-16.7-160.8-17.8v225.7c68.7-16.7,124.9-99.9,160.8-207.9M759.6,737.2c55.2,14.8,107.8,38,156,68.8,61.2-81.2,96.5-178.9,101.4-280.4h-228.8c-1.5,71.4-11.1,142.4-28.6,211.7M271.8,785.9c-48.5,13-94.8,33-137.6,59.3,72.9,79.4,169.1,133.6,274.8,154.8-57-41.4-105-117-137.2-214.1M409,0c-105.7,21.1-201.9,75.3-274.8,154.7,42.7,26.4,89.1,46.3,137.6,59.3C304,117,352,41.4,409,0M257.4,262.8c-55.2-14.8-107.8-38-156-68.8C40.2,275.3,4.9,373,0,474.5h228.8c1.4-71.4,11.1-142.4,28.6-211.7h0s0,0,0,0ZM709.2,724.5c16.8-65.1,26.3-131.8,28.3-199h-203.5v179.1c58.9,1.2,117.5,7.9,175.2,19.9h0Z"></path>
</svg>